<mxfile host="Electron" modified="2023-05-03T15:25:02.266Z" agent="Mozilla/5.0 (Macintosh; Intel Mac OS X 10_15_7) AppleWebKit/537.36 (KHTML, like Gecko) draw.io/21.2.1 Chrome/112.0.5615.87 Electron/24.1.2 Safari/537.36" etag="dbD5SmCBfc62ghitu2wi" version="21.2.1" type="device">
  <diagram name="Page-1" id="rVU4XgYFeaPIMP7s9b_z">
    <mxGraphModel dx="954" dy="727" grid="1" gridSize="10" guides="1" tooltips="1" connect="1" arrows="1" fold="1" page="1" pageScale="1" pageWidth="827" pageHeight="1169" math="0" shadow="0">
      <root>
        <mxCell id="0" />
        <mxCell id="1" parent="0" />
        <mxCell id="ER_MTrioa-byhKbpKyzM-11" style="edgeStyle=orthogonalEdgeStyle;rounded=0;orthogonalLoop=1;jettySize=auto;html=1;exitX=0.25;exitY=1;exitDx=0;exitDy=0;entryX=0.1;entryY=0.005;entryDx=0;entryDy=0;entryPerimeter=0;" edge="1" parent="1" source="ER_MTrioa-byhKbpKyzM-1" target="ER_MTrioa-byhKbpKyzM-2">
          <mxGeometry relative="1" as="geometry" />
        </mxCell>
        <mxCell id="ER_MTrioa-byhKbpKyzM-1" value="Frontend" style="swimlane;whiteSpace=wrap;html=1;startSize=23;" vertex="1" parent="1">
          <mxGeometry x="170" y="240" width="200" height="140" as="geometry" />
        </mxCell>
        <mxCell id="ER_MTrioa-byhKbpKyzM-3" value="ReactJS" style="rounded=1;whiteSpace=wrap;html=1;" vertex="1" parent="ER_MTrioa-byhKbpKyzM-1">
          <mxGeometry x="40" y="40" width="120" height="40" as="geometry" />
        </mxCell>
        <mxCell id="ER_MTrioa-byhKbpKyzM-18" value="" style="shape=image;verticalLabelPosition=bottom;labelBackgroundColor=default;verticalAlign=top;aspect=fixed;imageAspect=0;image=data:image/svg+xml,PHN2ZyB4bWxucz0iaHR0cDovL3d3dy53My5vcmcvMjAwMC9zdmciIHdpZHRoPSIyNTUuOTk5OTg0NzQxMjEwOTQiIHZpZXdCb3g9IjAuMDAwMDExNDQ0MDkxNzk2ODc1IC0wLjAwMDAwMTkwNzM0ODYzMjgxMjUgMjU1Ljk5OTk4NDc0MTIxMDk0IDIyNy43NjcyODgyMDgwMDc4IiBwcmVzZXJ2ZUFzcGVjdFJhdGlvPSJ4TWlkWU1pZCIgaGVpZ2h0PSIyMjcuNzY3Mjg4MjA4MDA3OCI+PHBhdGggZmlsbD0iIzAwZDhmZiIgZD0ibTIxMC40ODMzODEgNzMuODIzNjM3NGMtMi42NTU2ODMtLjkxNDA4NzEtNS40MDc1MTQtMS43Nzg5NjEzLTguMjQwOTExLTIuNTk2OTAwNi40NjU3MDItMS45MDA2MjcuODkzMTI2LTMuNzc2NjQ3NCAxLjI3MzE2MS01LjYyMDc3MDQgNi4yMzgyMTItMzAuMjgxMDc0MiAyLjE1OTQ1MS01NC42NzU3MTg2LTExLjc2ODMwMy02Mi43MDc0NzM1Ny0xMy4zNTQ5NjktNy43MDEzODk0NC0zNS4xOTYwMDEuMzI4NTQyODQtNTcuMjU0MzkyIDE5LjUyNTI4NDc3LTIuMTIxMTc1IDEuODQ1OTQ1Ny00LjI0ODI3NCAzLjgwMDM0MjUtNi4zNzQ0NTkgNS44NDg2MDg1LTEuNDE2Ny0xLjM1NTE4MjEtMi44MzExMTktMi42NjQ3OTY0LTQuMjQxODkzLTMuOTE3NDUxMy0yMy4xMTc4MzktMjAuNTI2NDA2MTctNDYuMjg5OTAzOC0yOS4xNzY1MTQxNy02MC4yMDM5ODc0LTIxLjEyMTUxOTY1LTEzLjM0MjIwOTcgNy43MjM3MTc2NS0xNy4yOTMzODEgMzAuNjU3MDA3MjUtMTEuNjc4MDc4OCA1OS4zNTQ2MDU0NS41NDIyNTUxIDIuNzcxODgwNSAxLjE3NjEwMTEgNS42MDI1NDMzIDEuODkyODgwNCA4LjQ4MDU5NjQtMy4yNzk1MDQxLjkzMDk0NzEtNi40NDU1NDQ4IDEuOTIzNDEwNy05LjQ3NDg4MjYgMi45NzkyMTMzLTI3LjEwMzE4NTkgOS40NDkzNjQ3LTQ0LjQxMjUxNTYgMjQuMjU4ODUyNS00NC40MTI1MTU2IDM5LjYyMDE2NDcgMCAxNS44NjUyOTIgMTguNTgxNTc4NiAzMS43Nzg0MjggNDYuODExNjUyNiA0MS40MjczNzggMi4yMjc4MDI3Ljc2MTQzNiA0LjUzOTQ0OTkgMS40ODE0MDUgNi45MjE3MjcgMi4xNjQ5Mi0uNzczMjgzMSAzLjExMjcyNy0xLjQ0NTg2MTcgNi4xNjMwMjUtMi4wMTA0NDUxIDkuMTM4MTM4LTUuMzU0MTk5NCAyOC4xOTk1NDQtMS4xNzI5MTE0IDUwLjU5MTAzMyAxMi4xMzM3NTU0IDU4LjI2NTk5NCAxMy43NDQ1NzIgNy45MjYwMzkgMzYuODExODMwMS0uMjIxMDAzIDU5LjI3MzQ5NTEtMTkuODU1MTk0IDEuNzc1MzE2LTEuNTUyMDM1IDMuNTU3MDExLTMuMTk3OTM4IDUuMzQxODk2LTQuOTIzMTI5IDIuMzEzNDcxIDIuMjI3ODAyIDQuNjIzMjk0IDQuMzM2MjE3IDYuOTIwODE2IDYuMzEzODUzIDIxLjc1NjczMyAxOC43MjIzODMgNDMuMjQ1MDcyIDI2LjI4MjUxNCA1Ni41Mzk0MzUgMTguNTg2MTM3IDEzLjczMDkwMi03Ljk0ODgyNCAxOC4xOTMzNDMtMzIuMDAyNjIyIDEyLjM5OTg3LTYxLjI2Nzk5Mi0uNDQyNDYyLTIuMjM1MDk0LS45NTczNzYtNC41MTg0OS0xLjUzNTYyOS02Ljg0MjQzOSAxLjYxOTkzLS40Nzg5MTggMy4yMTAyNDEtLjk3MzMyNiA0Ljc2MDkwOS0xLjQ4NzMyOSAyOS4zNDc4NDktOS43MjM2ODIgNDguNDQyNTE4LTI1LjQ0MzE1NyA0OC40NDI1MTgtNDEuNTIwMzM3IDAtMTUuNDE2OTA0NC0xNy44Njc1MzQtMzAuMzI2MTg1Ny00NS41MTY2MTktMzkuODQ0MzU3NnptLTYuMzY1MzQ2IDcwLjk4MzkyNzZjLTEuMzk5ODM4LjQ2MzQyMi0yLjgzNjEzMS45MTEzNTMtNC4yOTk3NjQgMS4zNDU2MTItMy4yMzk4Ni0xMC4yNTY4MjMtNy42MTI1MzItMjEuMTYzNDQyLTEyLjk2MzU0Mi0zMi40MzE4NjcgNS4xMDYzMTItMTEuMDAwMDMzIDkuMzA5OTI3LTIxLjc2NzIxMzcgMTIuNDU5MTA4LTMxLjk1NzUwODYgMi42MTg3NzMuNzU3NzkwMSA1LjE2MDUzNyAxLjU1NzA0NjkgNy42MDk3OTkgMi40MDA1MDQyIDIzLjY4OTcxMiA4LjE1NTI0MzIgMzguMTQwMTI3IDIwLjIxMjkwMDQgMzguMTQwMTI3IDI5LjUwMzY4OTQgMCA5Ljg5NjM4NC0xNS42MDYwMSAyMi43NDMyNzMtNDAuOTQ1NzI4IDMxLjEzOTU3em0tMTAuNTE0MjgxIDIwLjgzNDQ0MmMyLjU2MTgxMyAxMi45NDA3NTkgMi45Mjc3MjEgMjQuNjQwNzEgMS4yMzA3ODIgMzMuNzg3MDUtMS41MjQ2OTMgOC4yMTg1ODMtNC41OTA5NDEgMTMuNjk4MDkzLTguMzgyMTcgMTUuODkyNjMyLTguMDY3NzU0IDQuNjY5NzczLTI1LjMyMDU3OC0xLjQwMDI5NC00My45MjcyMi0xNy40MTE4NTctMi4xMzMwMjItMS44MzU0NjYtNC4yODE1MzctMy43OTUzMy02LjQzNjg4Ny01Ljg2OTU3MSA3LjIxMzM2LTcuODg5MTI4IDE0LjQyMjYxOS0xNy4wNjA1MjkgMjEuNDU4NzIxLTI3LjI0NjI2OCAxMi4zNzU3MTktMS4wOTgxNzkgMjQuMDY3OTI1LTIuODkzNTQ2IDM0LjY3MTA2Mi01LjM0NDYzLjUyMjIwNSAyLjEwNjU5My45ODYwODQgNC4xNzI2MyAxLjM4NTcxMiA2LjE5MjY0NHptLTEwNi4zMjc1Njc0IDQ4Ljg3MjY3OWMtNy44ODIyOTMyIDIuNzgzNzI4LTE0LjE2MDE0OTEgMi44NjM0NzEtMTcuOTU1MDIzNS42NzUzMTItOC4wNzUwNDQyLTQuNjU3NDctMTEuNDMyMDEzMy0yMi42MzU3MzMtNi44NTI5MTk3LTQ2Ljc1MTk1OS41MjQ0ODM4LTIuNzYxODU2IDEuMTQ4NzYwNy01LjU5ODg5NyAxLjg2ODI3MzktOC40OTg4MjMgMTAuNDg2OTQwMiAyLjMxODkzOCAyMi4wOTM0Nzc4IDMuOTg3NjI1IDM0LjQ5ODgxNjEgNC45OTMzMDMgNy4wODM0OTI2IDkuOTY3MDE1IDE0LjUwMDk5NTYgMTkuMTI4MzkxIDIxLjk3NTkxMzYgMjcuMTUwMTIxLTEuNjMzMTQ1IDEuNTc2NjQtMy4yNTk5MTEgMy4wNzc2NC00Ljg3NzU2MiA0LjQ5MjA1OS05LjkzMjM4MiA4LjY4MjAwNi0xOS44ODU3MjQ1IDE0Ljg0MTg0MS0yOC42NTc0OTg0IDE3LjkzOTk4N3ptLTM2LjkyNzU3MjUtNjkuNzY3NzI3Yy0xMi40ODI4MDM2LTQuMjY2NDk5LTIyLjc5MTU3NDMtOS44MTE2MjctMjkuODU3NzUwNy0xNS44NjI1NTYtNi4zNDkzOTctNS40Mzc1ODgtOS41NTUwODE3LTEwLjgzNTk4OC05LjU1NTA4MTctMTUuMjE2NDA4IDAtOS4zMjE3NzUgMTMuODk3Njc5NC0yMS4yMTE3NDMzIDM3LjA3NjU3ODctMjkuMjkzMTY2OSAyLjgxMjQzNTctLjk4MDYxNiA1Ljc1NjU2MTktMS45MDQ3MjggOC44MTE4NzMzLTIuNzcyNzkxOCAzLjIwMzQwNjEgMTAuNDIwNDExNCA3LjQwNTY1NTMgMjEuMzE1MTgxNyAxMi40NzY4Nzk4IDMyLjMzMjA3MzctNS4xMzY4NDE5IDExLjE4MDQ4LTkuMzk4Nzg0NyAyMi4yNDg4NjUtMTIuNjMzNjMyNiAzMi43OTEzOTYtMi4xNzgxMzM5LS42MjYwOTktNC4yODgzNzItMS4yODUwMDctNi4zMTg4NjY4LTEuOTc4NTQ3em0xMi4zNzg0NTM3LTg0LjI1OTE1MTdjLTQuODExMDMzMi0yNC41ODczOTU1LTEuNjE1ODI5MS00My4xMzUyNTQxIDYuNDI0NTgzNy00Ny43ODk1MzQ0IDguNTY0NDQwOS00Ljk1ODIxNjY2IDI3LjUwMjgxMzggMi4xMTExNDkzIDQ3LjQ2MzI3MDUgMTkuODM0Njg5IDEuMjc1ODk0IDEuMTMyODEyIDIuNTU2ODAxIDIuMzE4NDgyMyAzLjg0MTM1MyAzLjU0NTE2MzctNy40MzgwMDggNy45ODY2NDMtMTQuNzg3NjE1IDE3LjA3OTIxMy0yMS44MDgyMjM2IDI2Ljk4NzQ0MzktMTIuMDM5ODg2OCAxLjExNTk1Mi0yMy41NjQ4NTgzIDIuOTA4NTgzNi0zNC4xNjExNjA3IDUuMzA5MDg3Ni0uNjY2MTk5My0yLjY3OTgzMzgtMS4yNTYzMDA0LTUuMzEyNzMyOS0xLjc1OTgyMjktNy44ODY4NDk4em0xMTAuNDI2ODMzMiAyNy4yNjcyMjk0Yy0yLjUzMzEwNS00LjM3NTQwNjMtNS4xMzM2NTItOC42NDczNzQtNy43ODQ3NzctMTIuODAyNjg4NCA4LjE2ODAwMiAxLjAzMjU2MyAxNS45OTM3OSAyLjQwMzIzODEgMjMuMzQyOTQyIDQuMDgwNTgzNi0yLjIwNjM4NyA3LjA3MTE4ODctNC45NTYzOTMgMTQuNDY0NTQwOS04LjE5MzUyIDIyLjA0MzgwOTEtMi4zMjIxMjctNC40MDg2NzA4LTQuNzc4MjI0LTguODUzNzk1Ni03LjM2NDY0NS0xMy4zMjE3MDQzem0tNDUuMDMxNzgtNDMuODYxMTQ2OGM1LjA0NDM0IDUuNDY0OTI5IDEwLjA5NTk3IDExLjU2NjQzOCAxNS4wNjQ2NjggMTguMTg2NTA2OS01LjAwNjk3NS0uMjM2NDk2MS0xMC4wNzU5MjEtLjM1OTUyODgtMTUuMTg2Nzg4LS4zNTk1Mjg4LTUuMDYyNTY3IDAtMTAuMDk0MTQ3LjEyMDI5ODctMTUuMDcwMTM2LjM1MjY5MzcgNC45NzM3MS02LjU1ODU1MjcgMTAuMDY5MDg1LTEyLjY1MTg1OTYgMTUuMTkyMjU2LTE4LjE3OTY3MTh6bS00NS4zMjAyMjI2IDQzLjkzNjc4OTFjLTIuNTMwMzcxOSA0LjM4NzcwOTYtNC45NDA5MDA5IDguODA4NjgzNy03LjIyNjU3NDUgMTMuMjM3ODYtMy4xODQ3MjM1LTcuNTUyODM5Mi01LjkwOTIxMzYtMTQuOTc5OTExNC04LjEzNDczNzktMjIuMTUxMzQ5MSA3LjMwNDAzOTUtMS42MzQ1MTE4IDE1LjA5MjkxODktMi45NzEwMTEgMjMuMjA4OTc0MS0zLjk4Mzk4LTIuNjg4NDkxNyA0LjE5MzU5MTItNS4zMTA0NTQ3IDguNDk3MDAwNy03Ljg0NzY2MTcgMTIuODk2NTU3OHptOC4wODE0MjM3IDY1LjM1MjIyYy04LjM4NTM2LS45MzU1MDQtMTYuMjkxMzQ4Mi0yLjIwMzE5NS0yMy41OTM1NjUxLTMuNzkyNTk2IDIuMjYxMDY3Mi03LjI5OTQ4MyA1LjA0NTcwNjYtMTQuODg1MTMgOC4yOTc4NzAxLTIyLjYwMDY0NiAyLjI5MTU5NzUgNC40MjU5ODcgNC43MTE2OTU3IDguODQ4Nzg0IDcuMjU3NTYwNiAxMy4yNDYwNjNoLjAwMDQ1NTZjMi41OTMyNTU0IDQuNDc5NzU2IDUuMjc5OTI0MyA4Ljg2NzkyIDguMDM3Njc4OCAxMy4xNDcxNzl6bTM3LjU0MTM2ODkgMzEuMDMwMjA2Yy01LjE4MzMyMS01LjU5MjUxOC0xMC4zNTM0MjctMTEuNzc4NzgyLTE1LjQwMjc3OS0xOC40MzMwMjcgNC45MDE3MTIuMTkyMjk1IDkuODk5MTE3LjI5MDcyMiAxNC45NzgwODkuMjkwNzIyIDUuMjE3OTUyIDAgMTAuMzc2MjEtLjExNzU2NSAxNS40NTMzNTktLjM0MzU4MS00Ljk4NTEwMyA2Ljc3NDA4OS0xMC4wMTg1MDUgMTIuOTY5OTIyLTE1LjAyODY2OSAxOC40ODU4ODZ6bTUyLjE5ODIwNS01Ny44MTY2OTZjMy40MjE2NzUgNy43OTg5MDQgNi4zMDYxMDggMTUuMzQ0OTA4IDguNTk2MzM4IDIyLjUxOTk5MS03LjQyMjUxNSAxLjY5MzI5My0xNS40MzY0OTggMy4wNTcxMzQtMjMuODgwMTg1IDQuMDcwNTU5IDIuNjU3NTA2LTQuMjExMzY0IDUuMjgwODM1LTguNTU2Njk2IDcuODU4NTk3LTEzLjAyNjQyNyAyLjYwNzgzOC00LjUyMjEzMyA1LjA4Mzk4NC05LjA1MTEwMiA3LjQyNTI1LTEzLjU2NDEyM3ptLTE2Ljg5ODMxIDguMTAwNTYyYy00LjAwMTc1MSA2LjkzODU4Ni04LjExMDEzMSAxMy41NjIzLTEyLjI4MDkzOCAxOS44MTQ2NC03LjU5NjU4NS41NDMxNjUtMTUuNDQ0NzAyLjgyMjk1MS0yMy40NDM2NDcuODIyOTUxLTcuOTY2NTkzIDAtMTUuNzE1ODMtLjI0NzQzMy0yMy4xNzc5ODgtLjczMTgxNy00LjMzODk1My02LjMzNDM1OS04LjUzNjY0NS0xMi45Nzc2NjctMTIuNTEyODc4OS0xOS44NDYwODFoLjAwMDkxMTRjLTMuOTY1NzUzMi02Ljg0OTcyOS03LjYxNTcyMjMtMTMuNzU3MzMxLTEwLjkyMzAyMjctMjAuNjI2MTk4IDMuMzA2Mzg5LTYuODg0ODE4IDYuOTQ2Nzg4OS0xMy44MDAxNjUgMTAuODg5NzU4Mi0yMC42Mzc1OTJsLS4wMDA5MTEzLjAwMTM2N2MzLjk1MzQ0OTYtNi44NTU2NTM4IDguMTE0MjMyMy0xMy40NjY2MDkzIDEyLjQxMzA4NDMtMTkuNzYxMzI1MyA3LjYxMzQ0NC0uNTc1NTE5MyAxNS40MjA1NTEtLjg3NTgxMDIgMjMuMzEwNTkxLS44NzU4MTAyaC4wMDA0NTZjNy45MjU1ODIgMCAxNS43NDI3MTMuMzAyNTY5MSAyMy4zNTM4NzguODgzMTAxMiA0LjIzMzIzNSA2LjI0ODY5MjYgOC4zNjU3NjYgMTIuODM4MjMxMSAxMi4zMzQ3MDkgMTkuNjk0Nzk2NCA0LjAxNDA1NiA2LjkzMzU3NDkgNy43MDEzOSAxMy44MDI4OTc5IDExLjAzNjAzIDIwLjU0MDA3NjktMy4zMjQ2MTUgNi44NTI5MTktNy4wMDM3NDcgMTMuNzkxNTA3LTExLjAwMDAzMiAyMC43MjE4OTF6bTIyLjU2MDA5MS0xMjIuMTI0MDUxMmM4LjU3MjY0NCA0Ljk0MzYzNSAxMS45MDYzNzIgMjQuODgxMzA3IDYuNTIwMjc2IDUxLjAyNTc0OTQtLjM0MzU4MSAxLjY2ODIzMTktLjczMDQ0OSAzLjM2NzQ0OTctMS4xNTA1ODQgNS4wODk0NTE0LTEwLjYyMDkwOS0yLjQ1MDYyODUtMjIuMTU0MDgzLTQuMjc0MjQ2LTM0LjIyOTA1NC01LjQwNzA1OC03LjAzNDI4LTEwLjAxNzEzNzctMTQuMzIzNzM4LTE5LjEyMzgzMzctMjEuNjQwNTM3LTI3LjAwNzk0OTYgMS45NjcxNTYtMS44OTI0MjQ1IDMuOTMxNTc4LTMuNjk2OTAzOCA1Ljg4Nzc5Ny01LjM5OTc2NyAxOC44OTk2NDEtMTYuNDQ3NjQ1MyAzNi41NjM5NDMtMjIuOTQxNDkxOTQgNDQuNjEyMTAyLTE4LjMwMDQyNjJ6bS01OC4yODQ2NzYgNzguNDM1MTQ5OGMxMi42MjQ5NzQgMCAyMi44NTk5MjUgMTAuMjM0NDk1NCAyMi44NTk5MjUgMjIuODU5OTI1NCAwIDEyLjYyNDk3NC0xMC4yMzQ5NTEgMjIuODU5OTI3LTIyLjg1OTkyNSAyMi44NTk5MjctMTIuNjI0OTc1IDAtMjIuODU5OTI2LTEwLjIzNDk1My0yMi44NTk5MjYtMjIuODU5OTI3IDAtMTIuNjI1NDMgMTAuMjM0OTUxLTIyLjg1OTkyNTQgMjIuODU5OTI2LTIyLjg1OTkyNTR6Ii8+PC9zdmc+;" vertex="1" parent="ER_MTrioa-byhKbpKyzM-1">
          <mxGeometry x="69.93" y="85" width="56.14" height="50" as="geometry" />
        </mxCell>
        <mxCell id="ER_MTrioa-byhKbpKyzM-12" style="edgeStyle=orthogonalEdgeStyle;rounded=0;orthogonalLoop=1;jettySize=auto;html=1;exitX=0.25;exitY=0;exitDx=0;exitDy=0;" edge="1" parent="1" source="ER_MTrioa-byhKbpKyzM-2">
          <mxGeometry relative="1" as="geometry">
            <mxPoint x="295" y="380" as="targetPoint" />
          </mxGeometry>
        </mxCell>
        <mxCell id="ER_MTrioa-byhKbpKyzM-2" value="Backend" style="swimlane;whiteSpace=wrap;html=1;startSize=23;" vertex="1" parent="1">
          <mxGeometry x="170" y="485" width="500" height="275" as="geometry" />
        </mxCell>
        <mxCell id="ER_MTrioa-byhKbpKyzM-13" style="edgeStyle=orthogonalEdgeStyle;rounded=0;orthogonalLoop=1;jettySize=auto;html=1;exitX=1;exitY=0.25;exitDx=0;exitDy=0;entryX=0;entryY=0.25;entryDx=0;entryDy=0;" edge="1" parent="ER_MTrioa-byhKbpKyzM-2" source="ER_MTrioa-byhKbpKyzM-4" target="ER_MTrioa-byhKbpKyzM-7">
          <mxGeometry relative="1" as="geometry" />
        </mxCell>
        <mxCell id="ER_MTrioa-byhKbpKyzM-4" value="" style="whiteSpace=wrap;html=1;aspect=fixed;" vertex="1" parent="ER_MTrioa-byhKbpKyzM-2">
          <mxGeometry x="10" y="45" width="215" height="215" as="geometry" />
        </mxCell>
        <mxCell id="ER_MTrioa-byhKbpKyzM-5" value="Business Logic" style="text;html=1;strokeColor=none;fillColor=none;align=center;verticalAlign=middle;whiteSpace=wrap;rounded=0;" vertex="1" parent="ER_MTrioa-byhKbpKyzM-2">
          <mxGeometry x="62.5" y="45" width="110" height="30" as="geometry" />
        </mxCell>
        <mxCell id="ER_MTrioa-byhKbpKyzM-6" value="Python" style="rounded=1;whiteSpace=wrap;html=1;" vertex="1" parent="ER_MTrioa-byhKbpKyzM-2">
          <mxGeometry x="52.5" y="95" width="120" height="40" as="geometry" />
        </mxCell>
        <mxCell id="ER_MTrioa-byhKbpKyzM-14" style="edgeStyle=orthogonalEdgeStyle;rounded=0;orthogonalLoop=1;jettySize=auto;html=1;exitX=0;exitY=0.75;exitDx=0;exitDy=0;entryX=1;entryY=0.75;entryDx=0;entryDy=0;" edge="1" parent="ER_MTrioa-byhKbpKyzM-2" source="ER_MTrioa-byhKbpKyzM-7" target="ER_MTrioa-byhKbpKyzM-4">
          <mxGeometry relative="1" as="geometry" />
        </mxCell>
        <mxCell id="ER_MTrioa-byhKbpKyzM-7" value="" style="whiteSpace=wrap;html=1;aspect=fixed;" vertex="1" parent="ER_MTrioa-byhKbpKyzM-2">
          <mxGeometry x="280" y="45" width="215" height="215" as="geometry" />
        </mxCell>
        <mxCell id="ER_MTrioa-byhKbpKyzM-8" value="Database" style="text;html=1;strokeColor=none;fillColor=none;align=center;verticalAlign=middle;whiteSpace=wrap;rounded=0;" vertex="1" parent="ER_MTrioa-byhKbpKyzM-2">
          <mxGeometry x="332.5" y="45" width="110" height="30" as="geometry" />
        </mxCell>
        <mxCell id="ER_MTrioa-byhKbpKyzM-10" value="MySql" style="rounded=1;whiteSpace=wrap;html=1;" vertex="1" parent="ER_MTrioa-byhKbpKyzM-2">
          <mxGeometry x="332.5" y="95" width="120" height="40" as="geometry" />
        </mxCell>
        <mxCell id="ER_MTrioa-byhKbpKyzM-16" value="" style="shape=image;verticalLabelPosition=bottom;labelBackgroundColor=default;verticalAlign=top;aspect=fixed;imageAspect=0;image=data:image/svg+xml,PHN2ZyB4bWxucz0iaHR0cDovL3d3dy53My5vcmcvMjAwMC9zdmciIHZpZXdCb3g9IjAgMCAxMjIuODggODMuNjciIGRhdGEtbmFtZT0iTGF5ZXIgMSIgaWQ9IkxheWVyXzEiPjxkZWZzPjxzdHlsZT4uY2xzLTEsLmNscy00e2ZpbGw6IzAwNzU4Zjt9LmNscy0yLC5jbHMtM3tmaWxsOiNmMjkxMTE7fS5jbHMtMywuY2xzLTR7ZmlsbC1ydWxlOmV2ZW5vZGQ7fTwvc3R5bGU+PC9kZWZzPjx0aXRsZT5teXNxbDwvdGl0bGU+PHBhdGggZD0iTTI5LjU0LDc2LjIzSDI0LjhxLS4yNC0xMi0xLjM4LTIyLjY0aDBMMTYuMTYsNzYuMjNIMTIuNTVMNS4zNyw1My41OWgwcS0uNzksMTAuMTktMSwyMi42NEgwUS40Miw2MS4wOCwyLjEsNDcuODJIOGw2Ljg0LDIwLjg3aDBsNi44OC0yMC44N2g1LjYycTEuODQsMTUuNTIsMi4xOCwyOC40MVptMCwwWiIgY2xhc3M9ImNscy0xIi8+PHBhdGggZD0iTTUwLjExLDU1LjI3UTQ3LjIyLDcxLDQyLjQ3LDc4LjE3cS0zLjY5LDUuNTEtOC4xLDUuNWE3Ljg5LDcuODksMCwwLDEtMi44OS0uN1Y4MC40NGExNC4wNSwxNC4wNSwwLDAsMCwyLC4xMiw0Ljc0LDQuNzQsMCwwLDAsMy4zMS0xLjE0LDQuMTMsNC4xMywwLDAsMCwxLjUxLTMuMTEsMjAuNzcsMjAuNzcsMCwwLDAtMS4xNy00Ljg0bC01LjItMTYuMmg0LjY1bDMuNzQsMTIuMTJxMS4yNiw0LjEzLDEuMDUsNS43NmE3OS4zMSw3OS4zMSwwLDAsMCw0LjI4LTE3Ljg4Wm0wLDBaIiBjbGFzcz0iY2xzLTEiLz48cGF0aCBkPSJNNzAuODgsNjguMzVhNy41Niw3LjU2LDAsMCwxLTIuNjQsNS45NCwxMC40MiwxMC40MiwwLDAsMS03LjA5LDIuMzFBMTQuMjIsMTQuMjIsMCwwLDEsNTMuMDksNzRsMS4yMi0yLjQ0YTEzLjc2LDEzLjc2LDAsMCwwLDYuMDgsMS42OCw2LjM5LDYuMzksMCwwLDAsNC0xLjEzLDMuOSwzLjksMCwwLDAsMS41NC0zLjE2YzAtMS42OC0xLjE3LTMuMTItMy4zMy00LjMzLTItMS4xLTYtMy4zOC02LTMuMzhhNi43OSw2Ljc5LDAsMCwxLTMuMjQtNiw3LjA5LDcuMDksMCwwLDEsMi40Mi01LjU4LDkuMDYsOS4wNiwwLDAsMSw2LjIzLTIuMTMsMTIuODcsMTIuODcsMCwwLDEsNy4xNywyLjExTDY4LjE1LDUyYTEzLjc0LDEzLjc0LDAsMCwwLTUuNDUtMS4xOCw0Ljg3LDQuODcsMCwwLDAtMy4zNiwxLDMuNTUsMy41NSwwLDAsMC0xLjI3LDIuN2MwLDEuNjgsMS4yLDMuMTQsMy40MSw0LjM3LDIsMS4wOSw2LjA4LDMuNDIsNi4wOCwzLjQyLDIuMjIsMS41NywzLjMyLDMuMjUsMy4zMiw2Wm0wLDBaIiBjbGFzcz0iY2xzLTIiLz48cGF0aCBkPSJNNzkuMzUsNzAuNTRjLTEuMTQtMS44NS0xLjcyLTQuODItMS43Mi04LjkxcTAtMTAuNzQsNi41MS0xMC43M2E1LjQ1LDUuNDUsMCwwLDEsNSwyLjU2cTEuNzMsMi43NywxLjcyLDguODQsMCwxMC44Mi02LjUsMTAuODFhNS40Nyw1LjQ3LDAsMCwxLTUtMi41NlptMTYuODcsNi4zN0w5MSw3NC4zNGE5LjcyLDkuNzIsMCwwLDAsMS4zLTEuMjdxMy4zMi0zLjkxLDMuMzItMTEuNTcsMC0xNC4xLTExLTE0LjFBMTAuNDQsMTAuNDQsMCwwLDAsNzYuMTYsNTFxLTMuMzEsMy45Mi0zLjMxLDExLjUzdDIuOTQsMTFjMS43OCwyLjEsNC40OCwzLjE2LDguMDksMy4xNmExMy4xNiwxMy4xNiwwLDAsMCwzLjcxLS41bDYuNzgsMy45NSwxLjg1LTMuMTlabTAsMFoiIGNsYXNzPSJjbHMtMyIvPjxwb2x5Z29uIHBvaW50cz0iMTEzLjIyIDc2LjIzIDk5Ljc1IDc2LjIzIDk5Ljc1IDQ3LjgyIDEwNC4yOCA0Ny44MiAxMDQuMjggNzIuNzMgMTEzLjIyIDcyLjczIDExMy4yMiA3Ni4yMyAxMTMuMjIgNzYuMjMiIGNsYXNzPSJjbHMtMiIvPjxwYXRoIGQ9Ik0xMTYuNDUsNzYuMjJoLjc1VjczLjMzaDF2LS41OWgtMi43NnYuNTloMXYyLjg5Wm01LjcyLDBoLjcxVjcyLjc0aC0xLjA3bC0uODcsMi4zOEwxMjAsNzIuNzRoLTF2My40OGguNjdWNzMuNThoMGwxLDIuNjRoLjUxbDEtMi42NHYyLjY0Wm0wLDBaIiBjbGFzcz0iY2xzLTIiLz48cGF0aCBkPSJNMTE4LjkxLDM4LjMxYTE1Ljg2LDE1Ljg2LDAsMCwwLTYuNjQsMWMtLjUxLjIxLTEuMzMuMjEtMS40Ljg2LjI3LjI3LjMuNzIuNTUsMS4xYTcuODcsNy44NywwLDAsMCwxLjc3LDIuMDljLjcyLjU1LDEuNDQsMS4xLDIuMiwxLjU4LDEuMzMuODIsMi44NCwxLjMsNC4xMywyLjEzLjc2LjQ4LDEuNTEsMS4wOSwyLjI3LDEuNjEuMzcuMjcuNjEuNzIsMS4wOS44OXYtLjFjLS4yNC0uMzEtLjMxLS43Ni0uNTUtMS4xbC0xLTFhMTYuNDksMTYuNDksMCwwLDAtMy41Ni0zLjQ3Yy0xLjEtLjc2LTMuNS0xLjc5LTMuOTQtM2wtLjA3LS4wN2ExMy41MSwxMy41MSwwLDAsMCwyLjM2LS41NmMxLjE3LS4zLDIuMjMtLjIzLDMuNDItLjU0LjU1LS4xNCwxLjEtLjMxLDEuNjUtLjQ4di0uMzFjLS42Mi0uNjItMS4wNi0xLjQ0LTEuNzEtMmE0Ni45LDQ2LjksMCwwLDAtNS42NS00LjIyYy0xLjA2LS42OC0yLjQzLTEuMTMtMy41Ni0xLjcxLS40MS0uMjEtMS4wOS0uMzEtMS4zMy0uNjZhMTMuODcsMTMuODcsMCwwLDEtMS40MS0yLjY0Yy0xLTEuODgtMi00LTIuOC02QTM3LjQyLDM3LjQyLDAsMCwwLDEwMywxNy43MiwzNC41NiwzNC41NiwwLDAsMCw4OS43MSw0Ljg4YTE2LjA4LDE2LjA4LDAsMCwwLTQuMzgtMS40Yy0uODUsMC0xLjcxLS4xMS0yLjU2LS4xNGExMy40LDEzLjQsMCwwLDEtMS41OC0xLjJjLTItMS4yNC03LTMuOTEtOC40Mi0uMzhDNzEuODUsNCw3NC4xNCw2LjE5LDc0LjkzLDcuMzJhMTYuMzUsMTYuMzUsMCwwLDEsMS43NCwyLjU3Yy4yNC41OS4zMSwxLjIxLjU1LDEuODJBNDEuNyw0MS43LDAsMCwwLDc5LDE2LjMxYTE2Ljg2LDE2Ljg2LDAsMCwwLDEuMjcsMi4xM2MuMjcuMzguNzUuNTUuODUsMS4xN2E5LjksOS45LDAsMCwwLS43OCwyLjU3Yy0xLjI0LDMuODgtLjc2LDguNjgsMSwxMS41My41NC44NiwxLjg1LDIuNzUsMy41OSwyLDEuNTQtLjYxLDEuMi0yLjU3LDEuNjUtNC4yOC4xLS40MiwwLS42OS4yMy0xdi4wNmMuNDgsMSwxLDEuODksMS40MSwyLjg1QTE5LjY1LDE5LjY1LDAsMCwwLDkyLjY2LDM4Yy44Mi42MiwxLjQ3LDEuNjgsMi41LDIuMDZWNDBoLS4wN2E0LDQsMCwwLDAtLjc5LS42OSwxNi4zMSwxNi4zMSwwLDAsMS0xLjc4LTIuMDZBNDMuMjQsNDMuMjQsMCwwLDEsODguNjksMzFjLS41NS0xLjA3LTEtMi4yNC0xLjQ3LTMuMy0uMjEtLjQxLS4yMS0xLS41NS0xLjIzQTEyLDEyLDAsMCwwLDg1LDI4Ljc3YTE5LDE5LDAsMCwwLTEsNS4xOGMtLjE0LDAtLjA3LDAtLjE0LjA3LTEuMDktLjI4LTEuNDctMS40MS0xLjg4LTIuMzdhMTQuODUsMTQuODUsMCwwLDEtLjMxLTkuMTZjLjI0LS43MiwxLjI3LTMsLjg1LTMuNjctLjItLjY2LS44OS0xLTEuMjYtMS41NWExMi43NywxMi43NywwLDAsMS0xLjIzLTIuMTljLS44Mi0xLjkzLTEuMjQtNC4wNS0yLjEyLTZhMTkuMjQsMTkuMjQsMCwwLDAtMS43Mi0yLjY0LDE2Ljc4LDE2Ljc4LDAsMCwxLTEuODgtMi42N2MtLjE3LS4zOC0uNDEtMS0uMTQtMS40MWEuNTUuNTUsMCwwLDEsLjQ4LS40NWMuNDUtLjM4LDEuNzEuMSwyLjE2LjMxQTE3LjExLDE3LjExLDAsMCwxLDgwLjI3LDRjLjQ4LjM0LDEsMSwxLjYsMS4xNmguNzJjMS4xLjI0LDIuMzMuMDcsMy4zNi4zOGEyMS42MywyMS42MywwLDAsMSw0LjkzLDIuMzcsMzAuMzcsMzAuMzcsMCwwLDEsMTAuNjcsMTEuNzRjLjQyLjc4LjU5LDEuNTEsMSwyLjMzLjcyLDEuNjgsMS42MSwzLjQsMi4zMyw1YTIyLjg1LDIyLjg1LDAsMCwwLDIuNDMsNC42Yy41Mi43MiwyLjU3LDEuMSwzLjQ5LDEuNDhhMjMuOTIsMjMuOTIsMCwwLDEsMi4zNywxYzEuMTYuNzIsMi4zMiwxLjU0LDMuNDIsMi4zMy41NC40MiwyLjI2LDEuMjcsMi4zNiwyWm0wLDBaIiBjbGFzcz0iY2xzLTQiLz48cGF0aCBkPSJNODQsOC40OGE1LjIsNS4yLDAsMCwwLTEuNDEuMTh2LjA3aC4wN2ExMi41NiwxMi41NiwwLDAsMCwxLjEsMS40Yy4yNy41NS41MSwxLjEuNzgsMS42NWwuMDctLjA3QTEuOTMsMS45MywwLDAsMCw4NS4zMywxMGMtLjItLjI0LS4yNC0uNDgtLjQxLS43MnMtLjY1LS41MS0uOTItLjc5Wm0wLDBaIiBjbGFzcz0iY2xzLTQiLz48L3N2Zz4=;" vertex="1" parent="ER_MTrioa-byhKbpKyzM-2">
          <mxGeometry x="332.5" y="155" width="123" height="84" as="geometry" />
        </mxCell>
        <mxCell id="ER_MTrioa-byhKbpKyzM-17" value="" style="shape=image;verticalLabelPosition=bottom;labelBackgroundColor=default;verticalAlign=top;aspect=fixed;imageAspect=0;image=data:image/png,iVBORw0KGgoAAAANSUhEUgAAANsAAADwCAYAAACJ6BG1AAAABGdBTUEAALGPC/xhBQAAACBjSFJNAAB6JgAAgIQAAPoAAACA6AAAdTAAAOpgAAA6mAAAF3CculE8AAAABmJLR0QA/wD/AP+gvaeTAAAme0lEQVR42u2deZgcVbn/v++p6n0yk0wSZFgiIBHIgBET0SAXEwhLgLgn7HjVK2FRLiiyXk1zwSUEiMrvouhluaKixOUCYsBAMiaThGByRTABREDMChMgmUxm6a467++PmZ7pnq6urq6u7q6uPu/z5ElPL9Wnus+n33M+VfUegoqKxsnfenJ8RPABJsxJYNFG4IkSGEeSxzHxWGKMY2AcgLHMDAAxAFEAAPMYBvTBLbEBxt6RLTOYsRtAD4O7wehmoFuA90hgN4G6JHinAG0nyJ0meHtH8pO71TdSuyD1EZQZzDR30ZMHm0RHmOAjiOlIwDyCQO9mxkEMjmXxMQjJyGuRe5Ozt5v1Fw8/xHl/5zyQgRA5d3LmedQP8DYwXmXgZTD/nYCXCcbLb+p4bVNyfkp9oQo2X0QymRQboiceYwpzGoM+QIxpAI4BOJEHDGeBUQy0UX/ngjby2GjQhrdXFDRH7TCZ8QqINzCwgUms6Lz5U39R37qCrWox57YnpwimUyVjFgH/AmAcj+rwVqDlZx0e9RK2Bi0HmNJAqwDw2wE8AhY/Xf3tT60FiFWPULB5GnNvfeoDpqCzwfgEwO/NGd0VBM1q2GYFlheg2bWjYsD/ncF36hG6tyM5v0f1EgWb65h3x9pYr+y/EIwvAphu/etfImijgRk1L2PmUdO/3A6fk5mqBvyoduQD/w4xbuuNxb+7MTm3V/UcBZvzLJZ8NM5jEpcw09cA3j+3X48SESWDNnq4Vxg0KyHic+C3MdN1axed/VOFkYKtaJy5eMWZEOIuME/yzvih+PzIgXn0HfCF2sH4vQFjwfpbL9iqcFKwWQ4Z+8zUD5n4IjciogzjVyXFj8q2Ix/4XWA6f+3ic/6gkCocotF2eM6ilQf18cAaZ6DB0vi5Bg12HRwFOzgcgwZnoKFM4PMdzgSQXHb8tT+/RiGlMhsA4JOL1+yXFqk/MuNIZ6AVMX4FRIS3it+ZefTLMT0Ad65N/O1KJJNS4dWgmW3u3RviaS29PAc0uOngsAUNjkCDd6BZpkW2TMaWwMNpO5xleAZ/eUbP5O8ptBoYNtmz9/uQ/D4UFABOQSswP8rrlFyALAvjFzTggS99+OqfLVR4NeAw8szbO2YR84oyBIBzEVEJ41eBdlThmB5Lxvz1t1/wK4VZo2Q2ZiLmJWUKAOfGD1wooRUUEfagoSLAVyHDEwH3fOhrP5usMBsMPfhZbeWpDJrqgfHrB+MFBm0bHBHwQWBMATjkpfGzGprVJfCDdzQT848BnqXOq2wA2EB06cgBWBcCgOVzIHw7TP2PPXLdx/dmb3pmcuXYcDj1cQLfwMzvdW78UJbx80bxo7LA8/DzPnrcVQ98/pkluEfN2QIcpy5+IhGi8FsAIi4EgMHgq2f0r70zWURjT7t7Q6h1167rCJxkQNRO8dsIkTIUf+ntGH2oQW4XHDt83ZL5fSqzBXbnQrMBRFwYvxQzffyJ6095/AkH77NxwfQ0gJtPuWXZiwA/CECzHsZVWvHbHNODU+Dh6GqC0g410AGS+hcA+K4SJEHdOcJH3AgAAr70xPWzHy/1/Zb/x5ylAG7w1vjBzvg5AM0L4C0+t9KBvwJgUrAFVUSCppcqAAi8fNl1p/zY7Xsuv3HOYhDWV8n4lX5MrwKX7TgE/tDjrnxgloItsLTxUSULAKJvlClkmICbqmj8CoAF+A54wecq2AIYM5MrowDe5VQADN3+x7JrT3m63PdumdzzBwC7qmb8UHPFb9uOrNunK9gCGIkW84DB6VdJAuAJL9576fz5JoAVpRq//A4OZ6AhP7NUXfHD0WU7B33oivsmK9gCFqaBppIFAPHrnjVAytcLiwhUwPjl6YscGPwCvEn0PgVbwIKEFi9ZAEjs8Wy6KPCOl8bPmYgo5ZhebYAnyKMUbEELKeOlCgAJTPQMdqb98julGxFRSqEeWL/OT8ATDm5U2AJ7UJuY4wCVJAAI9B7PMhv48LyO6+os/nIVf+WAhyvgqVlltuCNI+OlCwA+fd5DD2nlvvWMOx6KATipmlcTFAQNXDHgSzrUMLKdMQq2oLEGKVwIgIndrzafVe57x3qiZ4MRz++tdsA7FBEOC/WM/rsWlw9ZvQ5goWALWJhuBYDEN2cmV7oeXs+446EYMd2U08WDVjDIQ+AVbIGhzZUAaA+HBxa7fdt4d+z/AZiUv9laKX6fVQhTsAU1XAoA5itP/eay60t5p2QyKU5OProIhM8Xnx8VBb56lblQC+AVbMHEzb0A+NYptzz289O++Xhbsfc46ZbH3r1aTHsYhGtciwhPjZ8TIYL8dlSxYFAjhq5AsxMAdK5kOfeUWx67F5J+k5ax9R3JWf3A4BoBvSQ+AvCnIeVnwYOrhdbU+MEpaLWtEKZgC/hQsgwB0ATGFUx8ha71YvbNv3sLDNEHjMtUSvR3waDKVAhzC7yUCrYGAc0TATC+KsYPzoxffVYIU3O2gIVZQwHggfFjHyh+l8A7OplAwRbM5KZKhFcX+KIVwhRsAQetigJArQlgD7yCLZCs+bpicH0C70mFMAVbwD2JKhHuCfBlVghTsDUSaKpEOPxUMEjB1iigqRLhtQFewRawMGsnAIqXCHcKfAALBkkFWwBD1lAA1GOJ8GoBLxVsAR5FVlUA1HmJ8OoBr2ALYl5rFOPHvge+0SOw50a2pPf+pjcSby11UayRWnbZL6RCT3IRbl6szWbgodoAD28LBinYghdLk/NTAFJB2JePXPuLnjyAAlAwSA0jVfh+JlrhEuF54BWabZUDvIJNRT0oH4sODmegwQ40VO1qAgWbiroAzd9rAji9XlDBpsLvuAViTYDGPc5WM0Ey5/u/b5a90YN1DYeYzHEwNxONrEU9cu2nmX+XVdhdb2+ajg6lmpA2x1xN20ZIi1ujt2WOfnHBHZKjITvatwWD4P5QQ9523vjKRQBFvft1oh4Q98KUWxEx/kbj7+wOPGwzkyv1MU34MLOcLQnTmPEB6scBmmAw84hY56xfXcrcQVm1+F0KACKLCX++ACBbETHUDnIvIgi57WAqICJqXCLcdTtKAN4aDnEbwBO963lD+yAEkA6Dd351CxgdAJ5C1HyYxn13dyBgSyaT4pmmmScT80UAnyUZYxk02On8eo6fKhFeHeBrFweDcCGACzEg+njHVb+CoNvpXXf8pS5hO3XxE4kQwl/8k6CriHmS/TAFlTvHr6YCQAHvbwnJABADcCEkn887/v0hSO0aOvCOLXUhSKbdvSE097aOq0IU/gcIS1AUtMZeFNDXJcIrdfmQLyDjTNXr4bErQOdAmM/zjis+53vYzry9Y1ZbT89fJPgOABNqPR+oi0UBG61gkD+y2VCbeNQ+MsBoAeNe3n7Fj5kvDvluGDnt7g2htp69NwL4Ojh7KaDazQfqZ1HAEoCv+4JBfgIN+bDl7Cf/G3ZEDubX/vUTdOj9/b7IbKctWdXW1tOzBqCFYBZ+EQB+AF4VDGIfQcaD7SkIGo88b+Sx0xBuephf/nKk5rCdsWTl+0MsnwHwQSUAihu/gu3waYlwL4H3Vzbj3O/BCkDOfB58KmLyxzWF7YwlK98vJD0FxkFKADgDvj5LhHsAvH8kSH6ms5635WY54gt522WX1QS2j93+x2OFpBUAWj0VAPVq/IJeIrzuFH9RCWKR6XgUaHmZ7g5+/fL2qsJ22pJVbZL4EQDj/GP8VIlwX1YI89WwsRhMBeAcGU5GoJn3Ms/TqgLbvDvWxsJSPjI4dKz0fKAU46dKhNcGeD+ZR9cSxALA7GFmzmPHYdv4f6sKbP2cup2B6YWGKeypAFDGr2zga1YhrO4kSPF52/B7yJv5lYtbKgrbmUtWzmbgkvo3fhUQAAEtEe5/xe+hBMkfNloMJxkAJiIsr6wYbHPv3hAnSfcCICUAagQ8lOKvggTJz4rWGfPKcrKbLWzcs/caAAcrAVDmoYZygOc6AL7+JYiTeRsAjIVufM5z2M6646kDAfqaMn7FgA9gifBSgA+OBLEA0OIxoi9UILOJrwGIK+PXiCXC/aT4y5EgLuZtheZ/I48dzVs+9yHPYDvtjrWtYPqCMn4NXiK8porfCwmCUiWIg3kbA9JddrOELcSpBWBuUgLAa+NXRyXCa2oeaylBikEOAOa5/OZlTd4MI5k/qwRAPQGPil0+VFvQaiJB7Od/gwVymtDfc2bZsJ21uGMGA0coAVBPwFewRHhVQZP+kCBOhqws5pQNG5M816v5gFoUsAbAw0vgKwEUFa5IyKz7RIIUGbICAJ/OnBRlwQbQHK/mA2pRwABVCPNumGhXu3FM5SVIifO2QvM/lu/Cllc+4Bq2M5c8eRiAw5UA8Ivx80mFMG8zW48lgtsvjgNZma1iEsSJ6YQzyFme4Ro2ltopSgDUY8Gg+lH8xLTV8gEzMc5fEsRiO5zXntNdw0ZSntDoAiCQBYN8pPgl5EuWD+g82XcSpOj8D9N5y7yY2znbhxpaAPikYBD7uUR4ubDp4gXrqZw80ocSpNiQNQQZ/kDJsM29beUEgA6vfwFQX4sC+rZCWGXi7ecn7NhUYIB5lP8kiIN5mymPd7rz+siHLWcwiOpfANSx8Qt6iXDCH5FMFlgnSP5LgV8EGwCLDQ1ttmP1w1Y0m1k8lzCjZNgkaIYqEV56Ozwzfg1QIpyA/7UcQW69fDyAqa5gKgSB5WtcwFQc8o+UPIxkYIYqEd7gFcIqG33CoIetKaTZAAt/SpCicmY/fv28wxzDlkwmhQBPbzQBoCqEVfVymaUbf7RgT4HHzvaxBCkOuWHOcAzbuuaPHsaMpoYSAKpCWDVBY8m8uPAQks/wtQQpBjnxsY7nbJrJ7Q0lACpeIry+KoRVYa722+d+eOlfC/zcnw9GxNcSxG7+N/jYMc4FydCTVYlwVSK8AjHAEtdZZrUNF4fAuLIOJIj9ezOOdjyMZEa7KhGuSoRXZPxIfOuzd1/ysuWDbdoFAB9aBxLE/r2JD+AXPjnemY0kPkaVCPcf8HVfIpywwegaf4slhJvmhQG6oW4kSLGTl6N60ewm5iUfCoPx3qALAFUivOppbY9m0Dmbls5PWT46br+rwXx43UiQ4fsLnLdpmEUX39D74mPfDUZIlQhXJcI9jBQk5m380YJXLLPa9osnQcobvJcgZc7b7CVIsXYVz2yGSQcGWgCoEuHVBs1gwkXP3n3JckvQOCkgtXsATpQ2P3JyOUx2NismQUqY/3Gxy30YIDm5aGYjDZPAqkS4KhHujXkk5vOf/cGlvy74jG07bwQwu/yMUorSr4LpZD7IgfrngwAKngBQBYOqzBltB8v5f/7hpWsKmsmtl80C5EJHEJQKE5xkMy+HrKMfo6KwCYAOUiXCnbSjjoGvvHVcLlke+6wdaK9f3g7IXwGs1a0EsW9XE7/2ibG2mY0lJinjV6AdQagQVtl4G6Drn73r4h8DVPBNecslB4LM3wPcWucSxB5kiYMB7LbJbBivjF9AK4RVLt4BUxKRyHue/cGCH9mC9vqlh4FkB8CT6l6CFBvOsjyo2JwtERQBoEqEVxg0wjpi/CSsp36+/s4ruos9nbdc+j6QfBygtkBIELv5HxgwcWAx2OJgUiXCKw486q1EeB+Alxj0PJFcYUA+9de7Lt/i9MW8/eJPQMr7AbQERoIUhVy22MPGFFfGr2g7eiTwPBgvCOIXAdrGkHtZcg8ot+goUdYf6UxCGEkNI3dT7pNyn5j/d3rkjtHbo+xtlJ29eI8G9Pxpv643C5cwsIGMkzq27vwPSP46mEVl5kcOtuMoYzoE2Wm7hEjYCxIgrkqEW4BG+DOYHxXET/bv6X16448WpKHCHrRtlxyLbTvvBvEHAytB7EBmjhcfRtarAPAe+HcA/EQT8r7ORRf+ReHjeMg4ASYWgvmykfIGFYTJzbzN8yGrJbCJIrBBqBLheAuMJXJA3rn+zgu6FT4OIdt6+Xiw+WVIvhJkNTcLoASxaxdRscyGfmCQyJoKAC5NAHgEvEHM3w0lQjd1JOf3KHyczMlA2HrpiSD+HGB8BjT0a94wEsQGZJZN9rBJ7gMhUfMS4VU2fky8Xpq4eP1t5z+nECoC2GtXjoWeOgnEp2Abnw7iQyo/P/KpBLF7DybNXpAQDVjRHuAS4QzIO1Pv9FztRnpw1zVjkObJ0LgVkC2QEP5GxXT+mMlxEDWD0QzIiSA+EsCR4IFJAJO3GaVOJYhduwi99pmNuDf3KH2AS4QTugX4gs5F5z/qfPJ/7SRoxukAzQbzh2GaB0NkmkX5ur62Ociik5BNZ6PczkYAIPPOS/dHTRC/SBCbLDt4bNIGNqZ++8KdgSkR/oaUdMbaxef+X/F5SVLHGz2fAfgLgHESGKLqJQXKgqyana3BJIj9/tlnNmLew8EvEf66yfKU9YvPf9kesnkadr77Iryx90YA76mTGZWfOlvwJYhdu6hIZmPCtpFtB7JEeBfBOG394gvtQXvjK1PxBv0IxMfVF2Q+6myNIEHstsPFMht4GyOoJcJ5rxA8p/M7F75kM2QUeLP7RjB9A1kLjQQym1W6szWCBLFtF9keo9WlxDYbfei94q9ewSBmSZ/tvPW8jQW77NvXtuDNvQ+CaU4diXj/drZGkCD29S23OMpsflT8bAd80RLhvGTdbef9tmCX3XJVK1LGMgDH1SdkPuxsjSFBCm+HjH/aZzbQNsraoJ8rBpcA/IaB3XuvK9htd3x5IkisAnCkkiBKgng2ZNWjxWCTW7Sh4y0BKRFuSqYFhQ5Y8/ZkHLT34foATUmQOpqX9tLkZV1236ZYceMZ/2Rgb1AqBhP4zqcXn1P4WBrtfQBwvjSrP7KZqwI0Fp3NSYEdoGip7WLtKnlBQxftQgllDFzX8i+hTIPkfxb7RgWImJhf8Ezx17Zg0O5+0pOFh49fuRyET9W3BPFpZ3NcE8SLWv4Oa4KUtGBHsR+YIhW8iF8tDhsASdjs0vgVUfwoQfF7UTCIv7dx0XzL1S35za9NBtFt/oesxp0NLjub49VhHLSr1GztyaqlsN9O0XZx0TOTdAAQTH9lyAosCljVEuF7OR36fsE9lfxdAFElQZQEqci8lOlPjmAzBTYL01pE1MuigAz+2bol89+27MY7v3LWyFKySoIoCeJaghRuly42OoJN59RfJfQaK34H5hE27QDuK7ybdH2gspkfO1uQzgQp/eD8NjpixTZHc7Y/3PjxrQzsquMS4S+su/X8Z6ylyNUzARyvJIiSIGVLkMLz0o1OvvGhlUeJAV5fryXCARS+Po3wBSVBKt7ZGkSCFDqUIp92DhsAAp6uieL3ZFFA+ZT1XO3qBMCf8Hc2C0JnKxdyuFsYo+KrlhZoV957m8ucfPvDZ7kTYx3XQvGXvyjgQCqxr9M6q/FpYDQpCaIkSAXnpTswZe1fSoKtNyqfifSTCYbmnXmsSonwlzYmF1hfR8Q8q/Z1C5QECfQVCozHiJxdxj88jFxz7cf3ArTZ1vj5sEQ4AS/YWMgTlQRREqSy81K5zGlvELmjLl5X3DzWWPHnA/+idVKbpwF4r5IgSoJUcF6axkD/U65gY0JnHZQIH9Wn+U3LPXvzkENQkzNGlATxRoKwzySIxSiCuIOmb9zjtGfklAFIh/THQ6m0ZM6vhcg+XRTQJFhfim7KA6tb0VFJkMabl/KDpfSQnO64+oYzuphpQ8Fhmw/XBBDMPQVMZFP1QVOXwzTOvBT9SIV/6xq2IYP4+3paFFCySBXYt4SSIEqCVGZeCgD0Ozq2Y3dZsEHgsdIVP0pQ/F4XDCpQXpuEpiSIkiDezkuzOaGfldpj8mDrSH5sIxg7alYivJRDDTWrUqwkSMNIEOs+9g5CTcvKhg0gBvCLqih+j64mqL7SD3pngwdDVoft8uW8tEA2G0aEHqDJywY8gA0Ai3tKVvw1KhhU3xLEr51NSRDbjmCaP3DTgyxhW3nzxzYxsLaKJcLh+piekiBKglRMglhlNTxJ71v3omewAYCQfLtz81h5xe/kUIOSIEqCeCpBrPvEf7ntTQVh+6j+3P8y8HJZ9UOquCaAkiBKgngsQazin9h04O88hy2ZTEoGJ8sqEe6p4rcBXkkQjzqby3kpezkvZX9IEOsx5CKav9T0HDYAWHXzpx4EBi/5rkCJcFeKv7IJrZGNWxnzUng5L4UfJIjVXO010Dv/XU7vKnL2IDFIXsWA9LhEuCvFbwW8kiBKgnguQSy7B91I7ZtSFYQN+OPN81aD+b9rrfiLXk2gJIiSIJ5JkLx4Du2dvyy3pzk6Lz5syGsAvJrvQ3yyJoCSIEqCeCdB8juJoK8SQVYFticXzd8jgLOZecAzxe/Z1QRmGdlMSRAlQYrGPTSl80kvftodX/HV8c3PbGDGpdna0S9rAlRFggSisykJUmK8iv7+q72yAiVdXtn57Xn3AXKhV/VDipvH4sf0TNegNVJnUxLERfRDiHmlXIntKWwAsPpbZ9/MzNd5VD8E3hQMUhJESRDPho0AwQT4Apqy+v/gYbgqHND5nbMXgXAlGGaOsCi1fognVxMoCaIkiGfZbBA0ps/T0Wt/DY/DdZWOzm/N/55gnARgh5P6IezWPBYrGGQUaqGpJIiSIKXGPgCfoqM7f4IKRFklcVYtOntVWpjHAvhZeYq//IJB1klNSZDKDFkDJUFGjqWxOJ7a1zyCCkXZ9afWf+u8N9Z855wLwHQSwKtqsSaAo2GkkiD27WpMCQIAewF8A7T7g3TM6udQwdC92tCaW89eCWDlCdf+/AQGvsiMT4IxptIFgxyD5nr1TDjMGqhOGTsv21WzVUu9KmNXVmwBcD9Coe/TER27UIXQvd5g56LzOgF0Tks+eml4356TAPooAycQ4wiAx5W/JsCoqwlsa/kHvbN5DXktavk72I67X9rR8RaAzQA6IMVTOGb1ai/OCqkpbJnYmJzbC+B3Q/8AAMdd/z/j9TS1sanFWTObMx6DLNRGth4aeYI5fFfmPylSzxYWJBSUzvYnSHmD/SdeoN8Q5X4mprWCG/nfsNlOoceybwy9geH2PQo8h/JuOBjYmN0g6oUhttH7Ot9BjUOv5ps98+3PvjX0C1P5MDFUu8ghTK4ySgGQ7eB0AzljF73noSehoq5DD/4u1ulSRJUxbioUbLUCrZ4kiAoFm99hC4QEUcAp2HwdJsCE+jZuCjIFWz0OI/0uQewhn8CvfHp28f01HFwGYbh8LOtHzID7bbB8i9pX/VnBFljYqilBKjJk/SBAy4sfnCcHBpZs9o8czEuRZd+t9o+KSZ5lAM5QsAV63uYzCVJSxgzSwXlCo0aDCRJ1Jkjt56WsYGsYQeJXCVKx43Z+npcq2IIrSPwtQeCPk5erMS9VsAUbNv9LkOLbcdMuX8xL1SGMxhAkSoIgAJfDKNjqFzQlQXx+OYyCrb78yOhrd5QEURJEwVadeZuSIEqCKNiqCZqSIEqCKNgqyFotOpuSICoaCjapJIi7/dsD8FYAb4N5IoBDAI4qCaJgczaMVBKkWLsMMO4F+AFMmbmWKDn8S8WvzYxiH04ByQUAzlTZTMFWoXlbQ0iQjRA4n45c+dLgYx05nx4d2tEP4FEAj/KmE08C+KcAtyl0Sg8ReNBsC6N6Ucu/EoVRvajl72T/8Bh6m04cAc0+qH3VCpjp4wB6QaGjYMsKs8Ra/qhSLX92166C2ayE8uq577EZoeh5NP3R3lI+VZq6fitMcSaAXQofBZvFMLLM1WEss4YTCJzA5MWCHXCwfzntYoAupMnLut18ojR11WsA36DwUbAVnh8FeXWYktaYk0tpyory1h7rCt8H4O8KIQUbwNJwlFEKwVRvq8OUMmRl8fNyP16a1WGA6JcuXmoo2IIWRN1KgljO/yT6upd79Iv2hIvBRnejwhbgE5HlnvzCNKjjM0EcKv3i7eqi6Rt7PfmMpfYPUGmrmkOQgi1wYeivImRAXQ6Tt523vRsXiXfAJcLG8h9qGBm0UeTk+7oA7mpcCVJw/yZ6N3ow9nMxjNykYAumJVnfsBKkcLvG84bZLR6Niw4rHVB+VsEWzHi8QSWI3XE7QrR3jjdzNi6t2CrR8/T+ddsUbIGct5mPYPBUkuzOhoCdCYLSD87TRWWPGV6bGQVhfmkv4sfQwBFo2OjwX2wB+Pf22cwlBL44E8TtkBVzePPxJ5b14fakvwTGgSXN1kzcr2AL9LQNd5afUeBTCQKUfnA+8xS6n184bryrj3TTjGNBuKm0Xz48SVPXvKRgC3J2O+zB5SC5osEkSPGrqBmHwgw9zJtmtJYE2vMfPgosHgYQL+knD/SfaPAQDbGXJK4G2GggCQKHiyh+BCzW83PHzyg+3QLxX48/B0JfB+DgEr+BX1F7Z2ejw9YwS4rwK2ffBMhvWGcaoA7PBMlvl/urqBnAb0H4H+yRy+n4dX1ZQ8ZWsJgLxiUgfNjFR/8WDDm1kS1k48G24eIQxr3TAfDxZUFQ9TNBqr4GtwHCG2C8BeBdQ//KmTN/mo5Z8xuoaKzFsvilcydAT68D+PCa1gRxXcbOKeS++cRvoaPXfl1h1oCwAQC/9ukjYfJKAPtXJqOowqhD8RO0r/lXIlUZqLEESfavy6G/fhEazQJ4e4NIkFrE/dh8wOcVaA2e2UaEybxJkOlHAEwtrYxd3UqQavWoxZiy5loFmoItF7hN85oQHrgHoPkNJkEqEfsA+iId3fmgwkrBVhi6l+d+AaDvAZyofS3/epMgAID1ENqFNGXVy6o3qTmb/S/O5EfvgWa0g/G7kk+HGj3PqvaZILWNvSC6Gl2hExRoKrO5yHJnzQXzIgBHqdVhCvYaE4wHoONGOnLNdtVrFGzugVs5U0db7CIQfRXgKUqCDEcaoF+Djf+kY55WVZEVbB6D99LpJwB0LcBngpkaVIK8CfB9IHEXtXf+U/UKBVtloXvhjGNAxiUAPgNgv8BLkMGh4mqA7kNkzC9p8rIB1QsUbNWFjpMCf+s8HpLmAXzOMHjFhob1cSaIBLAOTEuh0UM0ZfUO9Y0r2PwB3oZpIcRaT4SQJ4P5ZADTANbqTIK8AmAlCB0weDlNXfum+mYVbP6H788zxyIiZgHyZAAnAnwUGLrPJMjrADoAWgFCh5qDKdgClPmi7wVp08CYBvA0gKeDEakCaAaAvwHYBKbNIGyEoA1qaKhgaxwAV87UsX//QTC1Q0F8CJgOAfGhYDoQhBYwWgA0ARgDIJH/jdEeMEsAA2DsAmELiHeAaSsI2yFpG9h8HanUizR9Y1p94ipUOAGTQfzcCeN4w7S4+jRUqFChQoUKFSpUqFChQoUKFSpUqFChQoUKFSpUqFChQoUKFSpUqFChQoUKFSpUqFChQoUKFSpUqFBR56EuHq3x585ZRV1vuukmV9/HwoULcy75JsrZjFrgQsEWrM+RmYdh2bRpEwHAvHnzsHnz5pzPuK2tLefvHTt2WH4HU6YM1obduXNn3uP7778/b9682bIhbW1tPGr7bLFtXrp0KQCgvb2dASCZTLKCU8HmS5ja29tpNEAZcFpbW4cfe/vtt3M+4+bm5uG/u7u7yQIWy/sLRXNzM+/YsSPvvsztLVu2oKWlJQeg1tZWHmobZwOaDWYGyFEwKhAVbN5+JslkkoY6HGUyUzZQGZiyQcpA1N3dTdnA7Nu3jyZOnDi88Z6eHgKACRMmYN++fTmff29vr6vvIx6P50GQSCR4165dAICmpiYGgK6uruHHhtrG2XB2d3dzNpDZMGaDuGnTJm5vb+eFCxfy0JBVQahgc56xsrNVW1sbZWepDFTZQCUSiRyYMhDFYjHKBqe/v59aWlqG3zASiQzfnwVqzt9uIhqNcnd3d87fALBnz57h2wAwMDDA2YBmoMwGMpFIcCZjNjc3cwbC7IzY1tbGGzduxAEHHMDZWVBlQAVbXuaygmt0xmpubqYMWFZQZYDKBqilpQX9/f2UDdCYMWOGbw8MDAz/39TUhCwIaKjzl7Qz+/btywZ5uJOn02kefX/2falUijNQZgDMgJkBsa+vj5uamrgYgBn4MkNRBV9jw2YLWDG4srNVBqxIJEKjoQqFQpSBJvt2IpFAKpWieDyOVCpFAKDrOmV1fLIYGub8nUqlKBwO86hhZ85zsh83DIMz9/X29g4/tm/fvhz4RoOYSqU4Go1ydkYcGBjgeDzOiUSC+/v7eei98+AbnfkUeLmhBXyISEQkLrvsMtHV1SWmTp0qenp6RGtrq+jq6hIAKBQKiYGBAZFIJERPT4+YOHEiDQwMiObmZrFv3z4RiUQEM1M4HBbMLMLhsNA0Tei6LphZpNNpoeu6SKfT2tBzRTgc1ohIxGIxQUSalFIkEgmRTqc1IhK6rmtEJAzD0CKRiACgaZomsv9FIhFhGIbGzBoza0IIkbnNzJphGGL0awBo4XBYpFIpEQqFhKZpwjRNoWmaMAxDSClFPB4nTdMEM1M8HqeBgQGh6zoNDAyIUChEQ58JxWIxAYASiQQZhiH6+vrINE3q7e2lVColYrEY9fT00Lhx42joh0B0d3dT5kcmHA5TX18f6bpOsVgMAGjixIk0f/586ujoULAFJYYgo66uLtHV1SV0XRc9PT0iHA6Lvr4+0dfXR83NzdTa2ir6+/vF2LFjhRVgiURCGIYhhkCjaDQqDMMQuq6L/v5+EY/HKRaLCSmliMViwzBpmiaISAghRDQaFQC0oY4umFkzTVMLh8OCiLRQKCQAaEIIEY/HRTgcFuFwWJimqQmb0HVdi8ViIhwOCymlEEKISCRC6XRaRCIRGoJz+H9N00QsFqNUKiU0TSMApOs6De0PaZpGRCQy9/f29ooMOLFYjIaeIwCQYRikaRoZhkG6rlNLSwsREXp7e0nXdUqn08PQDf24UV9fHxmGQWPGjGlY6IIGGyWTSXHXXXeJ/fbbryBkQ7/mQtM0MTAwIDRNE+l0OtOJKRKJUDweF+l0WlgBFg6HhRBi+PWxWIwMwxChUEhEo1EhpRyGbaizi2g0KtLptBaLxYQQQpimqWWyVzQaFcyshUIhQUTDoEWjUREKhSz/MfMw1BnYdF0XUkqh67oAQBkApZQiEokQM5OUUmiaNnwbAGXgM02ThjIvaZpGpmlSNBol0zTJNE0Kh8Nobm5G5rmJRILS6TR1d3eTrus0YcIEjIauubkZu3fvRmtrK3RdR1tbGxo10/1/Bp2v0+GcJTgAAAAldEVYdGRhdGU6Y3JlYXRlADIwMjItMTEtMDdUMTc6MTQ6MzIrMDA6MDBcuWJHAAAAJXRFWHRkYXRlOm1vZGlmeQAyMDIyLTExLTA3VDE3OjE0OjMyKzAwOjAwLeTa+wAAAABJRU5ErkJggg==;" vertex="1" parent="ER_MTrioa-byhKbpKyzM-2">
          <mxGeometry x="78.06" y="163.5" width="68.89" height="75.5" as="geometry" />
        </mxCell>
      </root>
    </mxGraphModel>
  </diagram>
</mxfile>
